<svg xmlns="http://www.w3.org/2000/svg" width="171.499" height="57.092" viewBox="0 0 171.499 57.092">
  <g id="logo_white" transform="translate(-69.675 -45)">
    <g id="_756748" data-name="756748" transform="translate(69.675 45)">
      <path id="Path_18" data-name="Path 18" d="M14.956,140.687a1.115,1.115,0,0,0-1.577,0l-2.408,2.4A19.176,19.176,0,0,0,5.3,156.746v3.128L.327,164.849A1.115,1.115,0,1,0,1.9,166.426l5.3-5.3a1.115,1.115,0,0,0,.327-.788v-3.589a16.96,16.96,0,0,1,5.013-12.086l2.407-2.4A1.115,1.115,0,0,0,14.956,140.687Z" transform="translate(0 -124.707)" fill="#d59b2d"/>
      <path id="Path_19" data-name="Path 19" d="M146.334,113.362a1.115,1.115,0,1,0,0-1.578,1.111,1.111,0,0,0,0,1.578Z" transform="translate(-129.725 -99.03)" fill="#d59b2d"/>
      <path id="Path_20" data-name="Path 20" d="M159.827,17.936a4.787,4.787,0,0,0-3.757-4.675,4.785,4.785,0,0,0-6.72-6.72,4.786,4.786,0,0,0-7.58-2.773A4.782,4.782,0,0,0,133.712,1.4l-8.264,8.264a1.115,1.115,0,1,0,1.577,1.577l8.264-8.264A2.556,2.556,0,0,1,139.075,6.4L136.2,9.282a1.115,1.115,0,0,0,0,1.577l0,0,0,0a1.115,1.115,0,0,0,1.577,0l2.7-2.7c.079-.079.154-.162.227-.245l2.161-2.161a2.556,2.556,0,0,1,3.788,3.423l-5.278,5.278a1.115,1.115,0,0,0,0,1.577l.005,0,0,0a1.115,1.115,0,0,0,1.577,0l5.1-5.1c.08-.08.155-.162.228-.247L150.5,8.495a2.556,2.556,0,0,1,3.615,3.615L151.9,14.323c-.084.073-.167.149-.247.228l-5.1,5.1a1.115,1.115,0,0,0,0,1.577l0,0,0,0a1.115,1.115,0,0,0,1.577,0l5.278-5.278a2.556,2.556,0,0,1,3.423,3.788l-7.533,7.533-7.9-7.9a3.176,3.176,0,0,0-5.111.873,3.175,3.175,0,0,0-4.46,1.443,3.176,3.176,0,0,0-4.25,4.25,3.176,3.176,0,0,0-.928,5.137l3.134,3.134a5.88,5.88,0,0,0-3.517,1.69l-.552.552a1.115,1.115,0,1,0,1.577,1.577l.552-.552a3.686,3.686,0,0,1,4.511-.544,3.22,3.22,0,0,0-1.4,5.871l4.635,3.108a11.2,11.2,0,0,0,3.408,1.537,27.854,27.854,0,0,1-8.658,1.391h-4.2a1.115,1.115,0,0,0-.788.327l-6.022,6.022a1.115,1.115,0,1,0,1.577,1.577l5.695-5.7h3.737a30.108,30.108,0,0,0,13.593-3.26h.606l8.943,8.942a1.115,1.115,0,1,0,1.577-1.577l-9.27-9.27a1.115,1.115,0,0,0-.788-.327h0l-3.148,0h-.013a8.958,8.958,0,0,1-5.006-1.523l-4.635-3.108a.992.992,0,0,1,1.067-1.673l2,1.215a1.419,1.419,0,0,0,1.739-2.217L128.243,29.5a.946.946,0,0,1,1.254-1.413l5.206,5.206a1.115,1.115,0,0,0,1.577,0l0,0,0,0a1.115,1.115,0,0,0,0-1.577l-5.126-5.126c-.049-.049-.1-.095-.15-.139l-1.232-1.232a.947.947,0,1,1,1.339-1.339l1.233,1.233c.045.051.091.1.139.149l5.126,5.126a1.115,1.115,0,0,0,1.577,0l0,0,0,0a1.115,1.115,0,0,0,0-1.577l-5.206-5.206A.946.946,0,0,1,135.4,22.34l1.379,1.379c.045.051.091.1.139.15l3.6,3.6a1.115,1.115,0,0,0,1.577,0l0,0,0,0a1.115,1.115,0,0,0,0-1.577l-3.682-3.682a.946.946,0,0,1,1.413-1.254l8.689,8.689h0l.7.7a8.928,8.928,0,0,1,2.633,6.368l0,2.035a1.115,1.115,0,0,0,.327.79l5.674,5.674a1.115,1.115,0,0,0,1.577-1.577l-5.347-5.347,0-1.572a11.141,11.141,0,0,0-3.195-7.855l7.534-7.534A4.749,4.749,0,0,0,159.827,17.936Z" transform="translate(-105.748 -0.001)" fill="#d59b2d"/>
      <path id="Path_21" data-name="Path 21" d="M493.9,416.29a1.115,1.115,0,1,0,.327.788A1.115,1.115,0,0,0,493.9,416.29Z" transform="translate(-437.137 -369.579)" fill="#d59b2d"/>
      <path id="Path_22" data-name="Path 22" d="M302.9,340l-.308.308a1.115,1.115,0,1,0,1.577,1.577l.308-.308a1.563,1.563,0,0,1,2.207,0A1.115,1.115,0,0,0,308.262,340,3.8,3.8,0,0,0,302.9,340Z" transform="translate(-268.561 -301.104)" fill="#d59b2d"/>
    </g>
  </g>
</svg>
